<svg width="20px" height="15px" viewBox="0 0 20 15" version="1.1" xmlns="http://www.w3.org/2000/svg" xmlns:xlink="http://www.w3.org/1999/xlink">
  <!-- Generator: Sketch 47.1 (45422) - http://www.bohemiancoding.com/sketch -->
  <desc>Created with Sketch.</desc>
  <defs></defs>
  <g id="Page-1" stroke="none" stroke-width="1" fill="none" fill-rule="evenodd">
    <g id="Desktop-HD" transform="translate(-634.000000, -471.000000)" fill-rule="nonzero" fill="#FFFFFF">
      <g id="Header">
        <g id="Icons" transform="translate(634.000000, 469.000000)">
          <path d="M17.3042414,2 L2.41027732,2 C1.08075041,2 0,3.08075041 0,4.41027732 L0,14.5897227 C0,15.9192496 1.08075041,17 2.41027732,17 L17.3001631,17 C18.62969,17 19.7104405,15.9192496 19.7104405,14.5897227 L19.7104405,4.41435563 C19.7145188,3.08482871 18.6337684,2 17.3042414,2 Z M18.6133768,14.5897227 C18.6133768,15.3115824 18.0261011,15.8988581 17.3042414,15.8988581 L2.41027732,15.8988581 C1.68841762,15.8988581 1.10114192,15.3115824 1.10114192,14.5897227 L1.10114192,4.41435563 C1.10114192,3.69249592 1.68841762,3.10522023 2.41027732,3.10522023 L17.3001631,3.10522023 C18.0220228,3.10522023 18.6092985,3.69249592 18.6092985,4.41435563 L18.6092985,14.5897227 L18.6133768,14.5897227 Z M12.4306688,9.37357259 L17.2512235,5.05057096 C17.4755302,4.84665579 17.4959217,4.5 17.2920065,4.27161501 C17.0880914,4.04730832 16.7414356,4.0269168 16.5130506,4.23083197 L9.86541599,10.1973899 L8.5685155,9.03915171 C8.56443719,9.03507341 8.56035889,9.03099511 8.56035889,9.0269168 C8.53181077,8.99836868 8.50326264,8.97389886 8.47063622,8.94942904 L3.19331158,4.22675367 C2.96492659,4.0228385 2.6182708,4.04323002 2.41435563,4.27161501 C2.21044046,4.5 2.23083197,4.84665579 2.45921697,5.05057096 L7.33686786,9.41027732 L2.47960848,13.9575856 C2.2593801,14.1655791 2.24714519,14.5122349 2.45513866,14.7365416 C2.56525285,14.8507341 2.71207178,14.9119086 2.8588907,14.9119086 C2.99347471,14.9119086 3.12805873,14.862969 3.23409462,14.7650897 L8.16476346,10.1525285 L9.50244698,11.3474715 C9.60848287,11.4412724 9.73898858,11.4861338 9.86949429,11.4861338 C10,11.4861338 10.134584,11.4371941 10.2365416,11.3433931 L11.6109299,10.1117455 L16.5130506,14.769168 C16.6190865,14.8711256 16.7577488,14.9200653 16.8923328,14.9200653 C17.0391517,14.9200653 17.1818923,14.862969 17.2920065,14.7487765 C17.5,14.5285481 17.4918434,14.177814 17.271615,13.9698206 L12.4306688,9.37357259 Z" id="email"></path>
        </g>
      </g>
    </g>
  </g>
</svg>
