<svg width="9px" height="15px" viewBox="0 0 9 15" version="1.1" xmlns="http://www.w3.org/2000/svg" xmlns:xlink="http://www.w3.org/1999/xlink">
  <!-- Generator: Sketch 47.1 (45422) - http://www.bohemiancoding.com/sketch -->
  <desc>Created with Sketch.</desc>
  <defs></defs>
  <g id="Page-1" stroke="none" stroke-width="1" fill="none" fill-rule="evenodd">
    <g id="Desktop-HD" transform="translate(-664.000000, -470.000000)" fill-rule="nonzero" fill="#FFFFFF">
      <g id="Header">
        <g id="Icons" transform="translate(634.000000, 469.000000)">
          <path d="M38.402047,1.003121 L36.3079193,1 C33.9552386,1 32.434833,2.44892482 32.434833,4.69152024 L32.434833,6.39355825 L30.3292812,6.39355825 C30.1473365,6.39355825 30,6.53057021 30,6.69957242 L30,9.16563153 C30,9.33463375 30.1475045,9.47148965 30.3292812,9.47148965 L32.434833,9.47148965 L32.434833,15.6941419 C32.434833,15.8631441 32.5821695,16 32.7641142,16 L35.5112604,16 C35.693205,16 35.8405416,15.862988 35.8405416,15.6941419 L35.8405416,9.47148965 L38.3024227,9.47148965 C38.4843673,9.47148965 38.6317039,9.33463375 38.6317039,9.16563153 L38.6327119,6.69957242 C38.6327119,6.61842639 38.5979358,6.54071346 38.5362795,6.48328704 C38.4746233,6.42586062 38.390623,6.39355825 38.3032627,6.39355825 L35.8405416,6.39355825 L35.8405416,4.95071939 C35.8405416,4.25723292 36.0184542,3.90518398 36.9910098,3.90518398 L38.401711,3.90471583 C38.5834877,3.90471583 38.7308242,3.76770388 38.7308242,3.59885771 L38.7308242,1.30897912 C38.7308242,1.140289 38.5836557,1.0034331 38.402047,1.003121 Z" id="facebook"></path>
        </g>
      </g>
    </g>
  </g>
</svg>
