
<svg width="18px" height="15px" viewBox="0 0 18 15" version="1.1" xmlns="http://www.w3.org/2000/svg" xmlns:xlink="http://www.w3.org/1999/xlink">
  <!-- Generator: Sketch 47.1 (45422) - http://www.bohemiancoding.com/sketch -->
  <desc>Created with Sketch.</desc>
  <defs></defs>
  <g id="Page-1" stroke="none" stroke-width="1" fill="none" fill-rule="evenodd">
    <g id="Desktop-HD" transform="translate(-717.000000, -470.000000)" fill-rule="nonzero" fill="#FFFFFF">
      <g id="Header">
        <g id="Icons" transform="translate(634.000000, 469.000000)">
          <path d="M100.298143,10.1964881 L100.298143,16 L96.5905906,16 L96.5905906,10.5851723 C96.5905906,9.22492348 96.0543331,8.29660683 94.7123222,8.29660683 C93.687867,8.29660683 93.078213,8.92222422 92.8100039,9.52740376 C92.7121954,9.74375307 92.6870194,10.044883 92.6870194,10.3477282 L92.6870194,16 L88.9782206,16 C88.9782206,16 89.0281705,6.82905923 88.9782206,5.87888137 L92.6866574,5.87888137 L92.6866574,7.31350942 C92.6791368,7.3242393 92.669364,7.33580858 92.6622858,7.34620999 L92.6866574,7.34620999 L92.6866574,7.31350942 C93.1793595,6.62486314 94.0592737,5.6411088 96.0287952,5.6411088 C98.4688991,5.64107231 100.298143,7.08767111 100.298143,10.1964881 Z M85.0986591,1 C83.8298839,1 83,1.7552153 83,2.74834916 C83,3.71984078 83.8058742,4.49797568 85.0494332,4.49797568 L85.074207,4.49797568 C86.367555,4.49797568 87.171901,3.71998676 87.171901,2.74834916 C87.1475293,1.7552153 86.367555,1 85.0986591,1 Z M83.2202701,16 L86.9276613,16 L86.9276613,5.87888137 L83.2202701,5.87888137 L83.2202701,16 Z" id="LinkedIn"></path>
        </g>
      </g>
    </g>
  </g>
</svg>
