<svg width="16px" height="15px" viewBox="0 0 16 15" version="1.1" xmlns="http://www.w3.org/2000/svg" xmlns:xlink="http://www.w3.org/1999/xlink">
  <!-- Generator: Sketch 47.1 (45422) - http://www.bohemiancoding.com/sketch -->
  <desc>Created with Sketch.</desc>
  <defs></defs>
  <g id="Page-1" stroke="none" stroke-width="1" fill="none" fill-rule="evenodd">
    <g id="Desktop-HD" transform="translate(-161.000000, -3007.000000)" fill="#4A4A4A">
      <g id="Contact" transform="translate(0.000000, 2772.000000)">
        <g id="Column" transform="translate(161.000000, 195.000000)">
          <path d="M16.0079439,51.8379032 C16.0418808,52.0815728 15.9626486,52.2934369 15.7705799,52.4734954 L13.5156215,54.5708715 C13.4138941,54.6768035 13.2811109,54.7669236 13.1172167,54.8409981 C12.9533225,54.9151765 12.7922817,54.9628459 12.6340944,54.9840063 C12.6227914,54.9840063 12.5887991,54.9867325 12.5322562,54.9920291 C12.4758241,54.9972998 12.4023542,55 12.3119298,55 C12.0971165,55 11.74952,54.9655721 11.2691404,54.8966903 C10.7887608,54.8278085 10.2010299,54.6582913 9.50594778,54.3882166 C8.81069942,54.11809 8.02233942,53.7128481 7.14072926,53.1726467 C6.25911909,52.6324713 5.32093828,51.8908952 4.32626992,50.9480743 C3.53505645,50.2171433 2.87947958,49.517992 2.3595393,48.8506462 C1.83959902,48.1832485 1.42138618,47.5661945 1.1049008,46.9994582 C0.788387706,46.4327219 0.551023666,45.9189516 0.392780972,45.4581473 C0.234538278,44.997343 0.127159307,44.600098 0.0706440597,44.2664121 C0.0141288119,43.9327262 -0.00847728716,43.6705445 0.00282576239,43.4798669 C0.0141288119,43.2891892 0.0197803367,43.1832572 0.0197803367,43.1620708 C0.0423864358,43.013766 0.0932501588,42.8628128 0.172371506,42.7092114 C0.251492852,42.55561 0.347568774,42.4311399 0.460599269,42.335801 L2.71555765,40.2224572 C2.87380035,40.0741524 3.05464914,40 3.25810403,40 C3.40504368,40 3.53502875,40.0397245 3.64805924,40.1191735 C3.76108974,40.1986225 3.85716566,40.2966097 3.93628701,40.4131349 L5.75042646,43.6387649 C5.8521539,43.8082561 5.88041153,43.9936372 5.83519933,44.194908 C5.78998713,44.3961788 5.69391121,44.5656701 5.54697157,44.7033817 L4.71619742,45.481982 C4.69359133,45.5031684 4.67381099,45.5375963 4.65685641,45.5852658 C4.63990184,45.6329352 4.63142455,45.6726597 4.63142455,45.7044393 C4.67663675,45.9268965 4.7783642,46.1811334 4.93660689,46.4671498 C5.07224349,46.7213867 5.2813499,47.0312378 5.56392614,47.3967033 C5.84650238,47.7621688 6.24776064,48.1832226 6.76770092,48.6599167 C7.27633815,49.1472559 7.72846013,49.5259109 8.12406686,49.7960895 C8.51959049,50.0661123 8.8503155,50.2648127 9.11593716,50.3919312 C9.38155883,50.5190496 9.58501372,50.5958503 9.72627414,50.6222554 L9.93815091,50.6620059 C9.96075701,50.6620059 9.99757503,50.654035 10.0483833,50.6381712 C10.0992471,50.6222554 10.135982,50.6037433 10.1586158,50.5825309 L11.1249988,49.6609223 C11.3285645,49.4914571 11.5658177,49.4067115 11.8371186,49.4067115 C12.0293259,49.4067115 12.1818339,49.4384651 12.2948644,49.5020503 L12.3117913,49.5020503 L15.5839965,51.3134878 C15.8214436,51.4513033 15.962704,51.6260392 16.0079439,51.8379032 L16.0079439,51.8379032 Z" id="Phone"></path>
        </g>
      </g>
    </g>
  </g>
</svg>
