<svg width="13px" height="37px" viewBox="0 0 13 37" version="1.1" xmlns="http://www.w3.org/2000/svg" xmlns:xlink="http://www.w3.org/1999/xlink">
  <defs></defs>
  <g id="Page-1" stroke="none" stroke-width="1" fill="none" fill-rule="evenodd">
    <g id="Desktop-HD" transform="translate(-715.000000, -755.000000)" fill-rule="nonzero" fill="#FFFFFF">
      <g id="Scroll-Down" transform="translate(682.000000, 729.000000)">
        <g id="Scroll-Down-icon" transform="translate(33.000000, 26.000000)">
          <ellipse id="Oval" cx="6.29032258" cy="5.34444444" rx="1.25806452" ry="1.23333333"></ellipse>
          <path d="M6.29032258,0.205555556 C2.8163871,0.205555556 0,2.96698889 0,6.37304444 L0,16.6491778 C0,20.0552333 2.8163871,22.8166667 6.29032258,22.8166667 C9.76425806,22.8166667 12.5806452,20.0552333 12.5806452,16.6491778 L12.5806452,6.37304444 C12.5806452,2.96698889 9.76425806,0.205555556 6.29032258,0.205555556 Z M11.7419355,16.6491778 C11.7419355,19.5964333 9.29625806,21.9944444 6.29032258,21.9944444 C3.2843871,21.9944444 0.838709677,19.5964333 0.838709677,16.6491778 L0.838709677,6.37304444 C0.838709677,3.42578889 3.2843871,1.02777778 6.29032258,1.02777778 C9.29625806,1.02777778 11.7419355,3.42578889 11.7419355,6.37304444 L11.7419355,16.6491778 Z" id="Shape"></path>
          <path d="M11.8648065,24.5815667 L6.29032258,30.0464667 L0.71583871,24.5815667 C0.551870968,24.4208222 0.28683871,24.4208222 0.122870968,24.5815667 C-0.0410967742,24.7423111 -0.0410967742,25.0021333 0.122870968,25.1628778 L5.99383871,30.9184333 C6.0756129,30.9986 6.18296774,31.0388889 6.29032258,31.0388889 C6.39767742,31.0388889 6.50503226,30.9986 6.58680645,30.9184333 L12.4577742,25.1628778 C12.6217419,25.0021333 12.6217419,24.7423111 12.4577742,24.5815667 C12.2938065,24.4208222 12.0287742,24.4208222 11.8648065,24.5815667 Z" id="Shape"></path>
          <path d="M11.8648065,30.3371222 L6.29032258,35.8020222 L0.71583871,30.3371222 C0.551870968,30.1763778 0.28683871,30.1763778 0.122870968,30.3371222 C-0.0410967742,30.4978667 -0.0410967742,30.7576889 0.122870968,30.9184333 L5.99383871,36.6739889 C6.0756129,36.7541556 6.18296774,36.7944444 6.29032258,36.7944444 C6.39767742,36.7944444 6.50503226,36.7541556 6.58680645,36.6739889 L12.4577742,30.9184333 C12.6217419,30.7576889 12.6217419,30.4978667 12.4577742,30.3371222 C12.2938065,30.1763778 12.0287742,30.1763778 11.8648065,30.3371222 Z" id="Shape"></path>
        </g>
      </g>
    </g>
  </g>
</svg>
