<svg width="23px" height="67px" viewBox="0 0 23 67" version="1.1" xmlns="http://www.w3.org/2000/svg" xmlns:xlink="http://www.w3.org/1999/xlink">
  <!-- Generator: Sketch 43.2 (39069) - http://www.bohemiancoding.com/sketch -->
  <desc>Created with Sketch.</desc>
  <defs></defs>
  <g id="Page-1" stroke="none" stroke-width="1" fill="none" fill-rule="evenodd">
    <g id="iPhone-7-Plus" transform="translate(-198.000000, -662.000000)" fill-rule="nonzero" fill="#FFFFFF">
      <g id="Scroll-Down" transform="translate(170.000000, 634.000000)">
        <g id="Scroll-down-icon-mobile" transform="translate(28.000000, 28.000000)">
          <path d="M21.26696,0 L0.73304,0 C0.35332,0 0.04884,0.30448 0.04884,0.6842 L0.04884,38.91624 C0.04884,39.29244 0.35332,39.60044 0.73304,39.60044 L21.26652,39.60044 C21.64624,39.60044 21.95072,39.29244 21.95072,38.91624 L21.95072,0.6842 C21.95072,0.30448 21.64624,0 21.26696,0 Z M20.58276,38.23204 L1.41724,38.23204 L1.41724,33.1738 L20.58276,33.1738 L20.58276,38.23204 Z M20.58276,31.80584 L1.41724,31.80584 L1.41724,7.05892 L20.58276,7.05892 L20.58276,31.80584 Z M20.58276,5.69096 L1.41724,5.69096 L1.41724,1.36796 L20.58276,1.36796 L20.58276,5.69096 Z" id="Shape"></path>
          <path d="M14.31056,21.98372 C14.5772,22.25036 14.5772,22.68464 14.31056,22.95172 L11.58124,25.68104 L11.5368,25.729 C11.50952,25.75628 11.48224,25.78048 11.45144,25.80072 C11.44132,25.80776 11.43076,25.81436 11.42064,25.8214 C11.3454,25.86936 11.26312,25.90016 11.18128,25.9138 C11.14036,25.92392 11.09592,25.92744 11.05104,25.92744 C11.0066,25.92744 10.96568,25.92392 10.92124,25.9138 C10.83236,25.89664 10.74348,25.86232 10.66472,25.80776 C10.6304,25.78708 10.5996,25.7598 10.56924,25.729 L7.79196,22.95172 C7.52532,22.68508 7.52532,22.2508 7.79196,21.98372 C8.0586,21.71708 8.49288,21.71708 8.75996,21.98372 L10.36728,23.59104 L10.36728,14.78796 L8.75996,16.39528 C8.49332,16.66192 8.0586,16.66192 7.79196,16.39528 C7.52532,16.12864 7.52532,15.69744 7.79196,15.42728 L10.56924,12.65352 C10.59652,12.62624 10.62732,12.60204 10.65812,12.57828 C10.66164,12.57476 10.66516,12.57476 10.66868,12.57124 C10.68584,12.56112 10.69948,12.55056 10.71312,12.54396 C10.7404,12.5268 10.76768,12.51316 10.79496,12.50304 C10.85656,12.47928 10.92168,12.46212 10.98636,12.4586 C10.99692,12.45508 11.01056,12.45508 11.02068,12.45508 C11.07216,12.45156 11.12672,12.4586 11.1782,12.4652 C11.21912,12.47224 11.26004,12.48588 11.3014,12.49952 C11.3256,12.50964 11.35288,12.51976 11.37664,12.53692 C11.40744,12.55056 11.43472,12.56772 11.462,12.5884 C11.48928,12.60908 11.51348,12.62932 11.53724,12.65352 L11.58168,12.70148 L14.311,15.42728 C14.57764,15.69744 14.57764,16.1282 14.311,16.39528 C14.17768,16.5286 14.00344,16.59724 13.82876,16.59724 C13.65408,16.59724 13.47984,16.5286 13.343,16.39528 L11.73568,14.78796 L11.73568,23.59104 L13.343,21.98372 C13.61272,21.71708 14.04392,21.71708 14.31056,21.98372 Z" id="Shape"></path>
          <circle id="Oval" cx="11" cy="35.66596" r="1.24432"></circle>
          <path d="M21.2950312,49.2163917 L11.29,59.0254093 L1.28496875,49.2163917 C0.990680985,48.9278694 0.515003582,48.9278694 0.220715821,49.2163917 C-0.0735719402,49.5049139 -0.0735719402,49.9712721 0.220715821,50.2597943 L10.7578735,60.5905133 C10.9046411,60.7344054 11.0973205,60.8067205 11.29,60.8067205 C11.4826794,60.8067205 11.6753589,60.7344054 11.8221264,60.5905133 L22.3592841,50.2597943 C22.6535719,49.9712721 22.6535719,49.5049139 22.3592841,49.2163917 C22.0649963,48.9278694 21.5893189,48.9278694 21.2950312,49.2163917 Z" id="Shape"></path>
          <path d="M21.2950312,54.9719472 L11.29,64.7809649 L1.28496875,54.9719472 C0.990680985,54.683425 0.515003582,54.683425 0.220715821,54.9719472 C-0.0735719402,55.2604694 -0.0735719402,55.7268276 0.220715821,56.0153498 L10.7578735,66.3460688 C10.9046411,66.489961 11.0973205,66.562276 11.29,66.562276 C11.4826794,66.562276 11.6753589,66.489961 11.8221264,66.3460688 L22.3592841,56.0153498 C22.6535719,55.7268276 22.6535719,55.2604694 22.3592841,54.9719472 C22.0649963,54.683425 21.5893189,54.683425 21.2950312,54.9719472 Z" id="Shape"></path>
        </g>
      </g>
    </g>
  </g>
</svg>
