<svg width="16px" height="11px" viewBox="0 0 16 11" version="1.1" xmlns="http://www.w3.org/2000/svg" xmlns:xlink="http://www.w3.org/1999/xlink">
  <!-- Generator: Sketch 47.1 (45422) - http://www.bohemiancoding.com/sketch -->
  <desc>Created with Sketch.</desc>
  <defs></defs>
  <g id="Page-1" stroke="none" stroke-width="1" fill="none" fill-rule="evenodd">
    <g id="Desktop-HD" transform="translate(-161.000000, -3039.000000)" fill="#4A4A4A">
      <g id="Contact" transform="translate(0.000000, 2772.000000)">
        <g id="Column" transform="translate(161.000000, 195.000000)">
          <path d="M7.93437216,79.7 L9.89756253,78.0324 L15.5071637,82.7019 C15.3042704,82.8856 15.0299678,83 14.7273282,83 L1.14141611,83 C0.837643004,83 0.562206942,82.8856 0.358180229,82.7019 L5.97118179,78.0324 L7.93437216,79.7 Z M15.5105641,72.2981 L7.93437216,78.6 L0.360447193,72.3003 C0.564473905,72.1144 0.838776486,72 1.14141611,72 L14.7273282,72 C15.0322348,72 15.3065374,72.1133 15.5105641,72.2981 Z M0,72.9658 L5.47811724,77.5869 L0,82.1046 L0,72.9658 Z M10.3906271,77.5869 L15.8687443,72.9625 L15.8687443,82.1046 L10.3906271,77.5869 Z" id="Email"></path>
        </g>
      </g>
    </g>
  </g>
</svg>
