
<svg width="17px" height="15px" viewBox="0 0 17 15" version="1.1" xmlns="http://www.w3.org/2000/svg" xmlns:xlink="http://www.w3.org/1999/xlink">
  <!-- Generator: Sketch 47.1 (45422) - http://www.bohemiancoding.com/sketch -->
  <desc>Created with Sketch.</desc>
  <defs></defs>
  <g id="Page-1" stroke="none" stroke-width="1" fill="none" fill-rule="evenodd">
    <g id="Desktop-HD" transform="translate(-749.000000, -470.000000)" fill-rule="nonzero" fill="#FFFFFF">
      <g id="Header">
        <g id="Icons" transform="translate(634.000000, 469.000000)">
          <path d="M130.700228,4.82900707 C129.947781,3.6510776 128.927135,2.7185092 127.638021,2.03109149 C126.348715,1.34363873 124.941178,1 123.414411,1 C121.887835,1 120.479837,1.34374391 119.1908,2.03109149 C117.901571,2.71847413 116.880964,3.6510776 116.128517,4.82900707 C115.376185,6.00690147 115,7.29317128 115,8.68778143 C115,10.3630246 115.53494,11.8694462 116.605089,13.2074319 C117.675123,14.5455227 119.057449,15.4714294 120.751951,15.9852571 C120.949196,16.0187059 121.095211,15.9951796 121.190149,15.9152742 C121.285126,15.8352636 121.332557,15.7350576 121.332557,15.6150768 C121.332557,15.5950566 121.330676,15.4149452 121.327031,15.0745321 C121.32327,14.7341191 121.321505,14.4371473 121.321505,14.1837571 L121.0695,14.2235871 C120.908826,14.2504794 120.706132,14.2618744 120.461418,14.2586487 C120.216819,14.2555282 119.962895,14.2321071 119.699991,14.1885606 C119.436973,14.1453998 119.192335,14.0452989 118.965887,13.8884684 C118.739555,13.7316378 118.578881,13.5263522 118.483904,13.2729269 L118.374345,13.0425722 C118.301318,12.8892128 118.186348,12.7188485 118.029281,12.5321104 C117.872215,12.345197 117.713383,12.2184844 117.552709,12.1517622 L117.475998,12.101589 C117.424883,12.0682455 117.377453,12.0280298 117.333591,11.9813628 C117.289767,11.9346958 117.256957,11.8879938 117.235045,11.8412216 C117.213095,11.7944144 117.231284,11.7560219 117.289805,11.725904 C117.348326,11.6957861 117.454086,11.6811654 117.607546,11.6811654 L117.826587,11.711073 C117.972679,11.737825 118.153385,11.8177303 118.368934,11.95128 C118.584368,12.0847244 118.761467,12.2582092 118.900267,12.4716642 C119.068347,12.7453551 119.270849,12.9539014 119.508349,13.0974086 C119.745657,13.2409157 119.984922,13.3125465 120.225913,13.3125465 C120.466905,13.3125465 120.675048,13.2958572 120.85042,13.2626539 C121.025599,13.2292752 121.189957,13.1791021 121.343417,13.1124149 C121.409152,12.6650991 121.588131,12.3214603 121.880199,12.0812533 C121.463913,12.0412831 121.089646,11.9810823 120.757208,11.9010367 C120.424962,11.8208859 120.081625,11.6908074 119.727429,11.5104505 C119.373041,11.3303391 119.079054,11.1066811 118.845392,10.8398624 C118.611691,10.5729033 118.419895,10.2224276 118.270273,9.78875069 C118.120574,9.35489847 118.045706,8.85442921 118.045706,8.28720266 C118.045706,7.47955874 118.334282,6.79228128 118.911319,6.22498462 C118.641009,5.61778785 118.666528,4.93710197 118.987953,4.18299711 C119.19978,4.12286647 119.513913,4.16799075 119.9302,4.31808945 C120.346563,4.46825828 120.65141,4.59689928 120.845047,4.70355667 C121.038685,4.81017899 121.193833,4.90053273 121.310722,4.97381147 C121.990142,4.80036174 122.691282,4.71361934 123.414334,4.71361934 C124.137386,4.71361934 124.83868,4.80036174 125.518138,4.97381147 L125.934463,4.73367458 C126.219163,4.57344307 126.555362,4.4266051 126.942253,4.29312559 C127.329375,4.15971621 127.625396,4.12297165 127.830009,4.1831023 C128.158571,4.93724222 128.187851,5.61789304 127.917464,6.2250898 C128.494463,6.79238647 128.783154,7.47983923 128.783154,8.28730785 C128.783154,8.85453439 128.708017,9.35658142 128.558548,9.7937645 C128.408888,10.2310177 128.215442,10.5811428 127.978134,10.8448762 C127.740558,11.1085744 127.444691,11.3304793 127.090494,11.5105557 C126.736221,11.6907723 126.392769,11.8208508 126.060523,11.9010016 C125.728123,11.9811525 125.353857,12.0413883 124.937571,12.0814286 C125.317248,12.381626 125.507125,12.8554835 125.507125,13.5027908 L125.507125,15.6147963 C125.507125,15.7347771 125.55279,15.8349481 125.644198,15.9149937 C125.735491,15.9948991 125.879664,16.0184254 126.076909,15.9849416 C127.771641,15.471184 129.153967,14.5452422 130.223962,13.2071514 C131.293843,11.8691657 131.828975,10.3627441 131.828975,8.68750094 C131.828591,7.2930661 131.452214,6.00690147 130.700228,4.82900707 Z" id="Github"></path>
        </g>
      </g>
    </g>
  </g>
</svg>
