<svg width="11px" height="15px" viewBox="0 0 11 15" version="1.1" xmlns="http://www.w3.org/2000/svg" xmlns:xlink="http://www.w3.org/1999/xlink">
  <!-- Generator: Sketch 47.1 (45422) - http://www.bohemiancoding.com/sketch -->
  <desc>Created with Sketch.</desc>
  <defs></defs>
  <g id="Page-1" stroke="none" stroke-width="1" fill="none" fill-rule="evenodd">
    <g id="Desktop-HD" transform="translate(-161.000000, -2976.000000)" fill="#4A4A4A">
      <g id="Contact" transform="translate(0.000000, 2772.000000)">
        <g id="Column" transform="translate(161.000000, 195.000000)">
          <path d="M5.53993581,9 C2.62075351,9 0.245822057,11.2257824 0.245822057,13.9616037 C0.245822057,15.0635001 0.996611045,16.8599689 2.54096482,19.453693 C3.63337703,21.2881937 4.70781449,22.8178284 4.75295719,22.8820293 L5.53993581,24 L6.32688012,22.8820615 C6.37205712,22.8178284 7.44656319,21.2882259 8.53883819,19.4537252 C10.0832606,16.8599689 10.833981,15.0635322 10.833981,13.9616359 C10.8340153,11.2257824 8.4590838,9 5.53993581,9 L5.53993581,9 Z M5.53993581,16.5 C4.02436222,16.5 2.79569863,15.3485304 2.79569863,13.9281048 C2.79569863,12.5076793 4.02436222,11.3562096 5.53993581,11.3562096 C7.05550939,11.3562096 8.28417298,12.5076793 8.28417298,13.9281048 C8.28417298,15.3485304 7.05547509,16.5 5.53993581,16.5 L5.53993581,16.5 Z" id="Location"></path>
        </g>
      </g>
    </g>
  </g>
</svg>
