
<svg width="13px" height="15px" viewBox="0 0 13 15" version="1.1" xmlns="http://www.w3.org/2000/svg" xmlns:xlink="http://www.w3.org/1999/xlink">
  <!-- Generator: Sketch 47.1 (45422) - http://www.bohemiancoding.com/sketch -->
  <desc>Created with Sketch.</desc>
  <defs></defs>
  <g id="Page-1" stroke="none" stroke-width="1" fill="none" fill-rule="evenodd">
    <g id="Desktop-HD" transform="translate(-782.000000, -469.000000)" fill-rule="nonzero" fill="#FFFFFF">
      <g id="Header">
        <g id="Icons" transform="translate(634.000000, 469.000000)">
          <path d="M157.141083,8.84039144 C157.493357,8.84039144 157.840669,8.84039144 158.18708,8.84039144 C158.18708,10.8937386 158.18708,12.9462198 158.18708,15 C154.787928,15 151.395543,15 148,15 C148,12.9457868 148,10.8954707 148,8.84039144 C148.346861,8.84039144 148.693723,8.84039144 149.045546,8.84039144 C149.045546,10.5598857 149.045546,12.2776479 149.045546,14.0019053 C151.743757,14.0019053 154.437459,14.0019053 157.140181,14.0019053 C157.141083,12.2798129 157.141083,10.5624838 157.141083,8.84039144 Z M154.161864,1.94769204 C155.321978,3.58101671 156.479385,5.20957825 157.638146,6.84073785 C158.004402,6.60041569 158.364795,6.36442366 158.726993,6.1275656 C157.565075,4.49250888 156.408569,2.86524638 155.250711,1.2349528 C154.886258,1.4731099 154.527218,1.70823591 154.161864,1.94769204 Z M157.424345,7.01307699 C155.648993,6.00805404 153.881759,5.00736122 152.110916,4.00450333 C151.88584,4.37039924 151.664823,4.72979995 151.440648,5.09439681 C153.211491,6.09682169 154.980078,7.09794752 156.75498,8.10297047 C156.980056,7.73620854 157.201975,7.3759418 157.424345,7.01307699 Z M159.205562,0 C158.770294,0.0727461678 158.344047,0.144193297 157.906974,0.216506452 C158.258797,2.16463151 158.611522,4.10539534 158.962443,6.05092232 C159.400869,5.97817615 159.829371,5.90629601 160.261482,5.83441587 C159.909208,3.88412575 159.557836,1.9429289 159.205562,0 Z M156.646275,8.46063913 C154.657122,7.9462198 152.675637,7.43569758 150.688739,6.92257729 C150.574172,7.33047545 150.460957,7.73447649 150.345938,8.14453971 C152.33464,8.65809301 154.317929,9.16904824 156.303925,9.68216853 C156.419846,9.2716723 156.532609,8.86767126 156.646275,8.46063913 Z M156.087418,11.7363817 C154.031509,11.7363817 151.981463,11.7363817 149.928712,11.7363817 C149.928712,12.1603014 149.928712,12.5772928 149.928712,12.9942842 C151.985072,12.9942842 154.035117,12.9942842 156.087418,12.9942842 C156.087418,12.5707976 156.087418,12.1529402 156.087418,11.7363817 Z M156.241679,10.1104183 C154.190731,9.9294189 152.147001,9.74755348 150.098759,9.56742011 C150.057713,9.99047372 150.017118,10.4065991 149.976523,10.8274877 C152.027471,11.0084871 154.071653,11.1894864 156.119894,11.3704858 C156.16094,10.9469992 156.200633,10.5308738 156.241679,10.1104183 Z" id="Stackoverflow"></path>
        </g>
      </g>
    </g>
  </g>
</svg>
