<svg width="21px" height="15px" viewBox="0 0 21 15" version="1.1" xmlns="http://www.w3.org/2000/svg" xmlns:xlink="http://www.w3.org/1999/xlink">
  <!-- Generator: Sketch 47.1 (45422) - http://www.bohemiancoding.com/sketch -->
  <desc>Created with Sketch.</desc>
  <defs></defs>
  <g id="Page-1" stroke="none" stroke-width="1" fill="none" fill-rule="evenodd">
    <g id="Desktop-HD" transform="translate(-684.000000, -471.000000)" fill-rule="nonzero" fill="#FFFFFF">
      <g id="Header">
        <g id="Icons" transform="translate(634.000000, 469.000000)">
          <path d="M70.3808496,3.77473603 C69.6307199,4.07590134 68.8258415,4.28014821 67.9801681,4.37133362 C68.8436582,3.90282407 69.5046382,3.1597022 69.817911,2.2769357 C69.0079374,2.71080566 68.113876,3.02585095 67.1612363,3.19663501 C66.3983851,2.45927635 65.3133029,2 64.1097652,2 C61.8007976,2 59.9286537,3.69628399 59.9286537,5.78721192 C59.9286537,6.08376063 59.9655857,6.37339953 60.0369188,6.65036541 C56.5626443,6.49225437 53.4819007,4.98407424 51.4200014,2.69233926 C51.0595728,3.25085744 50.8545318,3.90164729 50.8545318,4.59634011 C50.8545318,5.91068336 51.5932056,7.07038556 52.7139543,7.74887502 C52.0287637,7.7281154 51.3843348,7.55733134 50.820164,7.27345565 L50.820164,7.32076827 C50.820164,9.15552011 52.2618451,10.6867832 54.173452,11.0352913 C53.8232139,11.1206834 53.4538936,11.167996 53.0718187,11.167996 C52.8018386,11.167996 52.5407501,11.1437664 52.2847569,11.0976004 C52.8170909,12.6034873 54.3606764,13.6985571 56.1895276,13.7285801 C54.7593025,14.7440512 52.9559274,15.3475586 50.997198,15.3475586 C50.6597145,15.3475586 50.327293,15.3290922 50,15.2956294 C51.8504976,16.372263 54.0474036,17 56.4085888,17 C64.0996413,17 68.303698,11.2280118 68.303698,6.22225865 L68.2896778,5.73184288 C69.1111073,5.20099413 69.8217407,4.53403109 70.3808496,3.77473603 Z" id="twitter"></path>
        </g>
      </g>
    </g>
  </g>
</svg>
